<svg width="150" height="27" viewBox="0 0 150 27" fill="none" xmlns="http://www.w3.org/2000/svg">
  <path d="M142.854 19.5398C142.552 19.5398 142.336 19.4633 142.211 19.3138C142.079 19.1644 142.016 18.9002 142.016 18.5178V12.3166C142.016 10.238 141.453 8.62509 140.323 7.47801C139.19 6.33092 137.55 5.75391 135.394 5.75391C133.497 5.75391 131.953 6.21622 130.768 7.13388C129.576 8.05503 128.832 9.30987 128.536 10.9123L131.8 11.1174C132.019 10.238 132.419 9.57752 132.996 9.12564C133.577 8.67723 134.376 8.45129 135.394 8.45129C136.531 8.45129 137.393 8.75718 137.967 9.36548C138.547 9.97726 138.836 10.8984 138.836 12.1393L133.354 13.1891C131.613 13.5263 130.33 14.0824 129.506 14.8506C128.675 15.6223 128.262 16.6929 128.262 18.0729C128.262 19.4529 128.755 20.52 129.743 21.2778C130.733 22.0355 132.054 22.4179 133.712 22.4179C134.654 22.4179 135.527 22.2615 136.333 21.9521C137.143 21.6428 137.814 21.2187 138.342 20.6764C138.665 20.3497 138.919 19.9882 139.103 19.6023C139.156 20.0403 139.26 20.4122 139.406 20.7216C139.646 21.2291 140.011 21.5941 140.497 21.8131C140.987 22.0321 141.571 22.1433 142.249 22.1433C142.489 22.1433 142.718 22.1329 142.941 22.112C143.16 22.0912 143.32 22.0738 143.417 22.0529V19.5398H142.851H142.854ZM138.839 15.5563C138.839 16.394 138.648 17.1413 138.273 17.8018C137.89 18.4622 137.362 18.9767 136.684 19.3486C136.006 19.717 135.186 19.9013 134.23 19.9013C133.392 19.9013 132.735 19.717 132.27 19.3486C131.797 18.9801 131.564 18.4553 131.564 17.774C131.564 17.1726 131.759 16.679 132.151 16.2897C132.541 15.9004 133.212 15.6188 134.174 15.4346L138.846 14.5378V15.5597L138.839 15.5563Z" fill="white"/>
  <path d="M145.047 6.11719V22.0547H148.22V6.11719H145.047Z" fill="white"/>
  <path d="M30.4972 8.70156C30.0871 7.79433 29.4892 7.07479 28.7001 6.54644C27.9111 6.01808 26.9204 5.75391 25.7247 5.75391C24.8869 5.75391 24.1048 5.90685 23.3888 6.21969C22.6692 6.52906 22.0644 7.00527 21.5639 7.6379C21.2927 7.98551 21.0668 8.39568 20.893 8.86494L20.8165 6.11541H17.9141V22.0286H21.0877V12.7546C21.0877 11.3399 21.4353 10.2623 22.1339 9.52538C22.8326 8.78846 23.7364 8.41653 24.8557 8.41653C25.5926 8.41653 26.1939 8.58686 26.6528 8.92751C27.1081 9.26468 27.4383 9.75132 27.6365 10.3909C27.8381 11.0305 27.9389 11.8195 27.9389 12.7546V22.0286H31.109V11.7987C31.109 10.6412 30.9074 9.6088 30.4972 8.70156Z" fill="white"/>
  <path d="M44.3281 0.789062V8.35634C43.8866 7.53948 43.2401 6.89989 42.385 6.44453C41.523 5.9857 40.5497 5.75281 39.4547 5.75281C38.0991 5.75281 36.9207 6.09346 35.9231 6.77128C34.922 7.4491 34.1573 8.40848 33.6185 9.65984C33.0797 10.9043 32.8086 12.3781 32.8086 14.0709C32.8086 15.7637 33.0728 17.2376 33.6011 18.482C34.1295 19.7299 34.8977 20.6927 35.9057 21.3705C36.9138 22.0484 38.0956 22.389 39.4513 22.389C40.5671 22.389 41.5681 22.1422 42.458 21.6556C43.3409 21.1689 44.0048 20.4946 44.4463 19.636L44.5367 22.0275H47.4947V0.789062H44.3246H44.3281ZM43.8449 17.0638C43.5286 17.9015 43.0663 18.5376 42.4684 18.979C41.8706 19.4205 41.1441 19.636 40.2855 19.636C39.0098 19.636 37.9879 19.1355 37.2301 18.1413C36.4723 17.1402 36.0969 15.7881 36.0969 14.0709C36.0969 12.3538 36.4723 10.9738 37.2301 9.98659C37.9879 9.00288 39.0063 8.50581 40.2855 8.50581C41.1406 8.50581 41.8671 8.72132 42.4684 9.14887C43.0663 9.57642 43.5286 10.2091 43.8449 11.0363C44.1647 11.8602 44.3246 12.8717 44.3246 14.0709C44.3246 15.2701 44.1647 16.226 43.8449 17.0603V17.0638Z" fill="white"/>
  <path d="M60.8716 6.11541V8.62509C60.4892 7.74914 59.867 7.05046 58.998 6.53253C58.1325 6.01808 57.1314 5.75391 55.9913 5.75391C54.6947 5.75391 53.5372 6.08413 52.5083 6.74109C51.4794 7.39806 50.6834 8.30877 50.1133 9.46629C49.5468 10.6203 49.2617 11.969 49.2617 13.5054C49.2617 15.0418 49.5502 16.3557 50.1307 17.5098C50.7112 18.6673 51.5177 19.5745 52.5535 20.235C53.5894 20.8919 54.7782 21.2222 56.1164 21.2222C57.1523 21.2222 58.0873 20.9788 58.9285 20.5026C59.7662 20.0229 60.3711 19.3764 60.7534 18.5561V20.8607C60.7534 21.9973 60.3954 22.8455 59.6898 23.4016C58.9806 23.9613 57.9691 24.2393 56.6517 24.2393C55.5359 24.2393 54.7052 24.0447 54.1559 23.6554C53.6033 23.2661 53.2209 22.7447 53.0019 22.0842L49.7136 22.2928C49.9326 23.2104 50.3497 24.0134 50.9684 24.7016C51.5872 25.3934 52.3762 25.9217 53.3321 26.3041C54.288 26.6795 55.3969 26.8707 56.6517 26.8707C58.1464 26.8707 59.4395 26.6378 60.5275 26.1685C61.6155 25.6993 62.4497 25.011 63.0406 24.1038C63.6281 23.2 63.9201 22.0842 63.9201 20.7668V6.11541H60.8716ZM59.5994 17.1796C58.852 18.0798 57.8579 18.5282 56.6239 18.5282C55.3899 18.5282 54.3749 18.0729 53.645 17.1691C52.9185 16.2619 52.5535 15.0279 52.5535 13.4741C52.5535 11.9204 52.9081 10.7177 53.6172 9.81041C54.3228 8.90317 55.3274 8.45129 56.6239 8.45129C57.4616 8.45129 58.1951 8.65638 58.8208 9.06655C59.4499 9.47672 59.9296 10.0537 60.2737 10.8011C60.6109 11.5519 60.7743 12.4418 60.7534 13.4776C60.7326 15.0522 60.3502 16.2897 59.5994 17.1865V17.1796Z" fill="white"/>
  <path d="M80.1578 19.5154C79.8589 19.5154 79.6468 19.439 79.5147 19.2895C79.3861 19.14 79.3201 18.8759 79.3201 18.497V12.3062C79.3201 10.231 78.757 8.62162 77.6307 7.47453C76.5045 6.32745 74.8673 5.75391 72.7087 5.75391C70.8178 5.75391 69.2744 6.21274 68.0891 7.13041C66.9038 8.05155 66.1599 9.30291 65.861 10.9019L69.1249 11.107C69.3439 10.231 69.7402 9.56709 70.3172 9.11869C70.8942 8.67028 71.6937 8.44434 72.7087 8.44434C73.8454 8.44434 74.7039 8.75023 75.2844 9.35505C75.8649 9.96683 76.1534 10.8845 76.1534 12.122L70.6787 13.1682C68.9407 13.5054 67.6615 14.0616 66.8308 14.8263C66.007 15.5945 65.5898 16.6651 65.5898 18.0416C65.5898 19.4181 66.0869 20.4852 67.0741 21.243C68.0613 22.0008 69.3822 22.3797 71.0368 22.3797C71.9718 22.3797 72.8443 22.2233 73.6542 21.9139C74.4641 21.6045 75.128 21.1804 75.6564 20.6417C75.9831 20.3149 76.2369 19.9569 76.4176 19.5711C76.4732 20.009 76.5775 20.381 76.72 20.6903C76.9564 21.1978 77.3214 21.5628 77.815 21.7818C78.3016 22.0008 78.8856 22.112 79.5634 22.112C79.7998 22.112 80.0327 22.1016 80.2482 22.0807C80.4672 22.0599 80.6305 22.0425 80.7279 22.0216V19.512H80.1578V19.5154ZM76.15 15.5389C76.15 16.3766 75.9588 17.1205 75.5799 17.7809C75.2045 18.4379 74.6761 18.9558 73.9983 19.3243C73.3205 19.6927 72.5036 19.8769 71.5443 19.8769C70.7065 19.8769 70.053 19.6962 69.5838 19.3243C69.1145 18.9558 68.8816 18.4309 68.8816 17.7531C68.8816 17.1552 69.0763 16.6582 69.4656 16.2688C69.8549 15.8795 70.5293 15.598 71.4852 15.4172L76.1534 14.5204V15.5389H76.15Z" fill="white"/>
  <path d="M103.295 8.50691C102.885 7.6101 102.291 6.9288 101.502 6.45606C100.713 5.9868 99.7603 5.75391 98.6445 5.75391C97.7825 5.75391 97.0177 5.92423 96.3399 6.2614C95.6621 6.60205 95.1059 7.08522 94.6784 7.71438C94.4177 8.10369 94.1987 8.54862 94.0284 9.05264C93.7433 8.18364 93.288 7.47106 92.6588 6.91142C91.8037 6.14322 90.6949 5.75738 89.3392 5.75738C88.5606 5.75738 87.8445 5.92771 87.1841 6.26488C86.5271 6.60553 85.971 7.08522 85.5226 7.70047C85.2758 8.03765 85.0741 8.41306 84.9108 8.8267L84.8517 6.11889H81.9492V22.0321H85.1228V12.699C85.1228 11.823 85.2619 11.0618 85.5399 10.4118C85.8215 9.76522 86.2039 9.26815 86.6905 8.93098C87.1806 8.59033 87.7646 8.42001 88.4424 8.42001C89.5165 8.42001 90.2812 8.79542 90.7296 9.54276C91.178 10.2936 91.4005 11.3433 91.4005 12.699V22.0321H94.4212V12.699C94.4212 11.8022 94.5567 11.034 94.8244 10.3944C95.0955 9.7548 95.4779 9.26815 95.9749 8.93098C96.4755 8.59033 97.0525 8.42001 97.7129 8.42001C98.7279 8.42001 99.4857 8.77456 99.9862 9.46976C100.487 10.1684 100.737 11.2043 100.737 12.5808V22.0321H103.907V11.8022C103.907 10.5056 103.702 9.40719 103.292 8.51038L103.295 8.50691Z" fill="white"/>
  <path d="M120.358 14.1937C120.358 12.4209 120.056 10.9054 119.448 9.64704C118.839 8.38872 117.988 7.42587 116.889 6.75847C115.794 6.0876 114.526 5.75391 113.09 5.75391C111.575 5.75391 110.257 6.09803 109.145 6.78628C108.026 7.47801 107.167 8.44434 106.555 9.68875C105.947 10.9332 105.645 12.3966 105.645 14.072C105.645 15.7474 105.95 17.2143 106.555 18.4692C107.167 19.7275 108.036 20.6903 109.162 21.3682C110.288 22.046 111.63 22.3866 113.184 22.3866C114.939 22.3866 116.427 21.9313 117.658 21.0275C118.885 20.1203 119.705 18.9245 120.126 17.4507L116.834 17.2421C116.597 17.9825 116.166 18.57 115.548 19.0114C114.929 19.4494 114.15 19.6649 113.215 19.6649C111.94 19.6649 110.928 19.2756 110.177 18.5004C109.426 17.7218 109.016 16.5574 108.936 15.0036H120.362V14.1937H120.358ZM108.933 12.6051C109.11 11.2495 109.569 10.2171 110.292 9.51148C111.022 8.80237 111.953 8.44782 113.087 8.44782C114.22 8.44782 115.089 8.78846 115.794 9.46629C116.504 10.1441 116.903 11.1869 117.008 12.6051H108.929H108.933Z" fill="white"/>
  <path d="M0 18.3261V22.0315H3.70195H15.5204V18.3261H3.70195V14.6172H0V18.3261Z" fill="white"/>
  <path d="M15.5216 10.9141H3.70312V14.616H15.5216V10.9141Z" fill="white"/>
  <path d="M3.70195 7.21094H0V10.9198H3.70195V7.21094Z" fill="white"/>
  <path d="M15.5216 3.50781H3.70312V7.20976H15.5216V3.50781Z" fill="white"/>
  <path d="M149.013 2.37759C149.013 2.42626 148.978 2.46797 148.933 2.4784C147.862 2.75995 147.017 3.60462 146.732 4.67524C146.718 4.72042 146.677 4.75518 146.631 4.75518C146.583 4.75518 146.541 4.72042 146.531 4.67524C146.249 3.60462 145.404 2.75995 144.334 2.4784C144.289 2.46449 144.254 2.42278 144.254 2.37759C144.254 2.32893 144.289 2.28722 144.334 2.27679C145.404 1.99523 146.249 1.15056 146.531 0.0799483C146.545 0.0347601 146.583 0 146.631 0C146.68 0 146.722 0.0347601 146.732 0.0799483C147.014 1.15056 147.859 1.99523 148.933 2.27679C148.978 2.29069 149.013 2.32893 149.013 2.37759Z" fill="white"/>
  <path fill-rule="evenodd" clip-rule="evenodd" d="M123.737 19.335V17.4688H124.429V19.335H126.295V20.0262H124.429V21.8924H123.737V20.0262H121.871V19.335H123.737Z" fill="white" stroke="white" stroke-width="0.8"/>
</svg>
